HIERARCHY
ROOT Hips
{
	OFFSET 0.00000 93.02000 0.00000
	CHANNELS 6 Xposition Yposition Zposition Yrotation Xrotation Zrotation
	JOINT RightUpLeg
	{
		OFFSET -9.25000 -1.59000 0.00000
		CHANNELS 6 Xposition Yposition Zposition Yrotation Xrotation Zrotation
		JOINT RightLeg
		{
			OFFSET 0.00000 -41.87000 0.00000
			CHANNELS 6 Xposition Yposition Zposition Yrotation Xrotation Zrotation
			JOINT RightFoot
			{
				OFFSET 0.00000 -41.87000 0.00000
				CHANNELS 6 Xposition Yposition Zposition Yrotation Xrotation Zrotation
				End site
				{
					OFFSET 0.00000 -7.69000 17.50000
				}
			}
		}
	}
	JOINT LeftUpLeg
	{
		OFFSET 9.25000 -1.59000 0.00000
		CHANNELS 6 Xposition Yposition Zposition Yrotation Xrotation Zrotation
		JOINT LeftLeg
		{
			OFFSET 0.00000 -41.87000 0.00000
			CHANNELS 6 Xposition Yposition Zposition Yrotation Xrotation Zrotation
			JOINT LeftFoot
			{
				OFFSET 0.00000 -41.87000 0.00000
				CHANNELS 6 Xposition Yposition Zposition Yrotation Xrotation Zrotation
				End site
				{
					OFFSET 0.00000 -7.69000 17.50000
				}
			}
		}
	}
	JOINT Spine
	{
		OFFSET 0.00000 14.30700 0.00000
		CHANNELS 6 Xposition Yposition Zposition Yrotation Xrotation Zrotation
		JOINT Spine1
		{
			OFFSET 0.00000 9.71800 0.00000
			CHANNELS 6 Xposition Yposition Zposition Yrotation Xrotation Zrotation
			JOINT Spine2
			{
				OFFSET 0.00000 10.12000 0.00000
				CHANNELS 6 Xposition Yposition Zposition Yrotation Xrotation Zrotation
				JOINT Spine3
				{
					OFFSET 0.00000 9.71800 0.00000
					CHANNELS 6 Xposition Yposition Zposition Yrotation Xrotation Zrotation
					JOINT Neck
					{
						OFFSET 0.00000 10.38700 0.00000
						CHANNELS 6 Xposition Yposition Zposition Yrotation Xrotation Zrotation
						JOINT Head
						{
							OFFSET 0.00000 9.47000 0.00000
							CHANNELS 6 Xposition Yposition Zposition Yrotation Xrotation Zrotation
							End site
							{
								OFFSET 0.00000 15.95000 0.00000
							}
						}
					}
					JOINT RightShoulder
					{
						OFFSET -3.20000 6.92500 0.00000
						CHANNELS 6 Xposition Yposition Zposition Yrotation Xrotation Zrotation
						JOINT RightArm
						{
							OFFSET -12.80000 0.00000 0.00000
							CHANNELS 6 Xposition Yposition Zposition Yrotation Xrotation Zrotation
							JOINT RightForeArm
							{
								OFFSET -26.50000 0.00000 0.00000
								CHANNELS 6 Xposition Yposition Zposition Yrotation Xrotation Zrotation
								JOINT RightHand
								{
									OFFSET -26.00000 0.00000 0.00000
									CHANNELS 6 Xposition Yposition Zposition Yrotation Xrotation Zrotation
									JOINT RightHandThumb1
									{
										OFFSET -2.48900 0.19000 3.12100
										CHANNELS 6 Xposition Yposition Zposition Yrotation Xrotation Zrotation
										JOINT RightHandThumb2
										{
											OFFSET -3.68300 0.00000 0.00000
											CHANNELS 6 Xposition Yposition Zposition Yrotation Xrotation Zrotation
											JOINT RightHandThumb3
											{
												OFFSET -2.55800 0.00000 0.00000
												CHANNELS 6 Xposition Yposition Zposition Yrotation Xrotation Zrotation
												End site
												{
													OFFSET -2.19400 0.00000 0.00000
												}
											}
										}
									}
									JOINT RightInHandIndex
									{
										OFFSET -3.22400 0.50800 1.97800
										CHANNELS 6 Xposition Yposition Zposition Yrotation Xrotation Zrotation
										JOINT RightHandIndex1
										{
											OFFSET -5.21700 -0.09100 0.99900
											CHANNELS 6 Xposition Yposition Zposition Yrotation Xrotation Zrotation
											JOINT RightHandIndex2
											{
												OFFSET -3.61900 0.00000 0.00000
												CHANNELS 6 Xposition Yposition Zposition Yrotation Xrotation Zrotation
												JOINT RightHandIndex3
												{
													OFFSET -2.05200 0.00000 0.00000
													CHANNELS 6 Xposition Yposition Zposition Yrotation Xrotation Zrotation
													End site
													{
														OFFSET -1.80500 0.00000 0.00000
													}
												}
											}
										}
									}
									JOINT RightInHandMiddle
									{
										OFFSET -3.38200 0.51700 0.75700
										CHANNELS 6 Xposition Yposition Zposition Yrotation Xrotation Zrotation
										JOINT RightHandMiddle1
										{
											OFFSET -5.17400 -0.08400 0.31400
											CHANNELS 6 Xposition Yposition Zposition Yrotation Xrotation Zrotation
											JOINT RightHandMiddle2
											{
												OFFSET -3.94900 0.00000 0.00000
												CHANNELS 6 Xposition Yposition Zposition Yrotation Xrotation Zrotation
												JOINT RightHandMiddle3
												{
													OFFSET -2.47600 0.00000 0.00000
													CHANNELS 6 Xposition Yposition Zposition Yrotation Xrotation Zrotation
													End site
													{
														OFFSET -1.97500 0.00000 0.00000
													}
												}
											}
										}
									}
									JOINT RightInHandRing
									{
										OFFSET -3.36500 0.53800 -0.12900
										CHANNELS 6 Xposition Yposition Zposition Yrotation Xrotation Zrotation
										JOINT RightHandRing1
										{
											OFFSET -4.63500 -0.02200 -0.47900
											CHANNELS 6 Xposition Yposition Zposition Yrotation Xrotation Zrotation
											JOINT RightHandRing2
											{
												OFFSET -3.44200 0.00000 0.00000
												CHANNELS 6 Xposition Yposition Zposition Yrotation Xrotation Zrotation
												JOINT RightHandRing3
												{
													OFFSET -2.38800 0.00000 0.00000
													CHANNELS 6 Xposition Yposition Zposition Yrotation Xrotation Zrotation
													End site
													{
														OFFSET -1.85700 0.00000 0.00000
													}
												}
											}
										}
									}
									JOINT RightInHandPinky
									{
										OFFSET -3.16100 0.46900 -1.20200
										CHANNELS 6 Xposition Yposition Zposition Yrotation Xrotation Zrotation
										JOINT RightHandPinky1
										{
											OFFSET -4.14100 -0.02200 -1.09100
											CHANNELS 6 Xposition Yposition Zposition Yrotation Xrotation Zrotation
											JOINT RightHandPinky2
											{
												OFFSET -2.75700 0.00000 0.00000
												CHANNELS 6 Xposition Yposition Zposition Yrotation Xrotation Zrotation
												JOINT RightHandPinky3
												{
													OFFSET -1.74200 0.00000 0.00000
													CHANNELS 6 Xposition Yposition Zposition Yrotation Xrotation Zrotation
													End site
													{
														OFFSET -1.64500 0.00000 0.00000
													}
												}
											}
										}
									}
								}
							}
						}
					}
					JOINT LeftShoulder
					{
						OFFSET 3.20000 6.92500 0.00000
						CHANNELS 6 Xposition Yposition Zposition Yrotation Xrotation Zrotation
						JOINT LeftArm
						{
							OFFSET 12.80000 0.00000 0.00000
							CHANNELS 6 Xposition Yposition Zposition Yrotation Xrotation Zrotation
							JOINT LeftForeArm
							{
								OFFSET 26.50000 0.00000 0.00000
								CHANNELS 6 Xposition Yposition Zposition Yrotation Xrotation Zrotation
								JOINT LeftHand
								{
									OFFSET 26.00000 0.00000 0.00000
									CHANNELS 6 Xposition Yposition Zposition Yrotation Xrotation Zrotation
									JOINT LeftHandThumb1
									{
										OFFSET 2.48900 0.19000 3.12100
										CHANNELS 6 Xposition Yposition Zposition Yrotation Xrotation Zrotation
										JOINT LeftHandThumb2
										{
											OFFSET 3.68300 0.00000 0.00000
											CHANNELS 6 Xposition Yposition Zposition Yrotation Xrotation Zrotation
											JOINT LeftHandThumb3
											{
												OFFSET 2.55800 0.00000 0.00000
												CHANNELS 6 Xposition Yposition Zposition Yrotation Xrotation Zrotation
												End site
												{
													OFFSET 2.19400 0.00000 0.00000
												}
											}
										}
									}
									JOINT LeftInHandIndex
									{
										OFFSET 3.22400 0.50800 1.97800
										CHANNELS 6 Xposition Yposition Zposition Yrotation Xrotation Zrotation
										JOINT LeftHandIndex1
										{
											OFFSET 5.21700 -0.09100 0.99900
											CHANNELS 6 Xposition Yposition Zposition Yrotation Xrotation Zrotation
											JOINT LeftHandIndex2
											{
												OFFSET 3.61900 0.00000 0.00000
												CHANNELS 6 Xposition Yposition Zposition Yrotation Xrotation Zrotation
												JOINT LeftHandIndex3
												{
													OFFSET 2.05200 0.00000 0.00000
													CHANNELS 6 Xposition Yposition Zposition Yrotation Xrotation Zrotation
													End site
													{
														OFFSET 1.80500 0.00000 0.00000
													}
												}
											}
										}
									}
									JOINT LeftInHandMiddle
									{
										OFFSET 3.38200 0.51700 0.75700
										CHANNELS 6 Xposition Yposition Zposition Yrotation Xrotation Zrotation
										JOINT LeftHandMiddle1
										{
											OFFSET 5.17400 -0.08400 0.31400
											CHANNELS 6 Xposition Yposition Zposition Yrotation Xrotation Zrotation
											JOINT LeftHandMiddle2
											{
												OFFSET 3.94900 0.00000 0.00000
												CHANNELS 6 Xposition Yposition Zposition Yrotation Xrotation Zrotation
												JOINT LeftHandMiddle3
												{
													OFFSET 2.47600 0.00000 0.00000
													CHANNELS 6 Xposition Yposition Zposition Yrotation Xrotation Zrotation
													End site
													{
														OFFSET 1.97500 0.00000 0.00000
													}
												}
											}
										}
									}
									JOINT LeftInHandRing
									{
										OFFSET 3.36500 0.53800 -0.12900
										CHANNELS 6 Xposition Yposition Zposition Yrotation Xrotation Zrotation
										JOINT LeftHandRing1
										{
											OFFSET 4.63500 -0.02200 -0.47900
											CHANNELS 6 Xposition Yposition Zposition Yrotation Xrotation Zrotation
											JOINT LeftHandRing2
											{
												OFFSET 3.44200 0.00000 0.00000
												CHANNELS 6 Xposition Yposition Zposition Yrotation Xrotation Zrotation
												JOINT LeftHandRing3
												{
													OFFSET 2.38800 0.00000 0.00000
													CHANNELS 6 Xposition Yposition Zposition Yrotation Xrotation Zrotation
													End site
													{
														OFFSET 1.85700 0.00000 0.00000
													}
												}
											}
										}
									}
									JOINT LeftInHandPinky
									{
										OFFSET 3.16100 0.46900 -1.20200
										CHANNELS 6 Xposition Yposition Zposition Yrotation Xrotation Zrotation
										JOINT LeftHandPinky1
										{
											OFFSET 4.14100 -0.02200 -1.09100
											CHANNELS 6 Xposition Yposition Zposition Yrotation Xrotation Zrotation
											JOINT LeftHandPinky2
											{
												OFFSET 2.75700 0.00000 0.00000
												CHANNELS 6 Xposition Yposition Zposition Yrotation Xrotation Zrotation
												JOINT LeftHandPinky3
												{
													OFFSET 1.74200 0.00000 0.00000
													CHANNELS 6 Xposition Yposition Zposition Yrotation Xrotation Zrotation
													End site
													{
														OFFSET 1.64500 0.00000 0.00000
													}
												}
											}
										}
									}
								}
							}
						}
					}
				}
			}
		}
	}
}
MOTION
Frames: 4
Frame Time: 0.008401
-22.167509 94.399391 20.693876 -89.874626 -1.047917 -2.832947 -9.375008 -1.620366 0.035366 2.465291 1.827438 5.265912 -0.223876 -41.86834 0.00846 -10.03896 1.042081 1.89582 1.276053 -42.185436 1.60808 -41.215691 -4.343428 -1.388947 9.192149 -1.575782 0.118952 4.334418 -0.150889 7.698503 -0.156708 -41.865494 -0.036411 -32.413208 -0.551723 1.487376 -2.66761 -41.305748 -1.523761 23.152182 2.871065 -6.603562 -0.022622 14.307151 0.046977 -12.659216 2.80614 2.105282 -0.008595 9.716341 0.019685 -3.174545 0.863571 0.571867 -0.011137 10.120841 0.036701 -5.179098 1.655467 0.923149 -0.002324 9.71828 0.024106 -0.215936 1.077869 0.10403 -0.020986 10.384943 0.05001 -0.217199 1.092314 0.10437 -0.028907 9.485371 0.043224 -3.453062 21.222284 1.331381 -3.238687 6.932996 -0.09815 29.821751 0.869224 -1.565924 -12.787505 0.005821 -0.16662 -21.815012 -21.953951 71.687683 -26.54118 0.088459 0.001774 102.55529 9.605416 47.130096 -26.01256 -0.017058 -0.045844 -1.569786 -9.280255 -8.427891 -2.489053 0.190105 3.120527 21.860001 -0.0 30.0 -3.682737 0.0 0.0 -10.0 -0.0 0.0 -2.558316 0.0 0.0 -10.0 -0.0 0.0 -3.223684 0.508421 1.978421 0.0 -0.0 0.0 -5.216842 -0.091368 0.999158 2.55 -0.0 20.0 -3.619368 0.0 0.0 0.0 -0.0 24.0 -2.052105 0.0 0.0 0.0 -0.0 20.0 -3.382106 0.517263 0.756737 0.0 -0.0 0.0 -5.174105 -0.084 0.313895 0.0 -0.0 20.0 -3.949473 0.0 0.0 0.0 -0.0 24.0 -2.475789 0.0 0.0 0.0 -0.0 20.0 -3.365158 0.537895 -0.128947 0.0 -0.0 0.0 -4.634737 -0.022105 -0.478947 -3.0 -0.0 20.0 -3.442379 0.0 0.0 0.0 -0.0 24.0 -2.388105 0.0 0.0 0.0 -0.0 20.0 -3.161053 0.469368 -1.201789 0.0 -0.0 0.0 -4.141052 -0.022105 -1.090526 -8.83 -0.0 20.0 -2.756526 0.0 0.0 0.0 -0.0 24.0 -1.741895 0.0 0.0 0.0 -0.0 20.0 3.183247 6.881301 0.034189 2.656266 -0.168955 -4.033705 12.713406 -0.078435 0.021382 -1.84656 -14.067889 -64.410416 26.487297 -0.12525 -0.058805 -73.587608 -19.802618 -28.329121 25.981339 -0.111218 -0.025146 -25.450851 9.667301 4.976216 2.489053 0.190105 3.120527 -21.860001 -0.0 -30.0 3.682737 0.0 0.0 10.0 -0.0 0.0 2.558316 0.0 0.0 10.0 -0.0 0.0 3.223684 0.508421 1.978421 0.0 -0.0 0.0 5.216842 -0.091368 0.999158 -2.55 -0.0 -20.0 3.619368 0.0 0.0 0.0 -0.0 -24.0 2.052105 0.0 0.0 0.0 -0.0 -20.0 3.382106 0.517263 0.756737 0.0 -0.0 0.0 5.174105 -0.084 0.313895 0.0 -0.0 -20.0 3.949473 0.0 0.0 0.0 -0.0 -24.0 2.475789 0.0 0.0 0.0 -0.0 -20.0 3.365158 0.537895 -0.128947 0.0 -0.0 0.0 4.634737 -0.022105 -0.478947 3.0 -0.0 -20.0 3.442379 0.0 0.0 0.0 -0.0 -24.0 2.388105 0.0 0.0 0.0 -0.0 -20.0 3.161053 0.469368 -1.201789 0.0 -0.0 0.0 4.141052 -0.022105 -1.090526 8.83 -0.0 -20.0 2.756526 0.0 0.0 0.0 -0.0 -24.0 1.741895 0.0 0.0 0.0 -0.0 -20.0
-22.172804 94.394615 20.61614 -89.54863 -1.029557 -2.744728 -9.375091 -1.612109 0.020885 2.331542 1.903283 5.224347 -0.223634 -41.868519 0.018343 -10.087684 0.954514 1.966207 1.242306 -42.181095 1.626162 -41.360088 -4.412586 -1.452914 9.181143 -1.586061 0.145783 4.23582 -0.147487 7.691493 -0.169834 -41.865753 -0.039993 -32.438576 -0.693881 1.553597 -2.674319 -41.294613 -1.544985 22.937117 3.043344 -6.771101 -0.006793 14.3073 0.044493 -12.70122 2.824024 2.084053 -0.004952 9.716608 0.016944 -3.185131 0.868573 0.567064 -0.01099 10.120827 0.032914 -5.196068 1.663898 0.915001 -0.003646 9.718366 0.020202 -0.210238 1.082988 0.106761 -0.021853 10.38483 0.047228 -0.211394 1.097331 0.107124 -0.029654 9.485264 0.037554 -3.320034 21.279888 1.405226 -3.240202 6.934402 -0.102326 29.842419 0.864858 -1.581708 -12.788098 0.005906 -0.172293 -21.654432 -21.9848 71.63942 -26.547955 0.099835 0.007343 102.679565 9.860522 47.010777 -26.011011 0.006493 -0.058031 -1.825904 -8.733516 -8.240353 -2.489053 0.190105 3.120527 21.860001 -0.0 30.0 -3.682737 0.0 0.0 -10.0 -0.0 0.0 -2.558316 0.0 0.0 -10.0 -0.0 0.0 -3.223684 0.508421 1.978421 0.0 -0.0 0.0 -5.216842 -0.091368 0.999158 2.55 -0.0 20.0 -3.619368 0.0 0.0 0.0 -0.0 24.0 -2.052105 0.0 0.0 0.0 -0.0 20.0 -3.382106 0.517263 0.756737 0.0 -0.0 0.0 -5.174105 -0.084 0.313895 0.0 -0.0 20.0 -3.949473 0.0 0.0 0.0 -0.0 24.0 -2.475789 0.0 0.0 0.0 -0.0 20.0 -3.365158 0.537895 -0.128947 0.0 -0.0 0.0 -4.634737 -0.022105 -0.478947 -3.0 -0.0 20.0 -3.442379 0.0 0.0 0.0 -0.0 24.0 -2.388105 0.0 0.0 0.0 -0.0 20.0 -3.161053 0.469368 -1.201789 0.0 -0.0 0.0 -4.141052 -0.022105 -1.090526 -8.83 -0.0 20.0 -2.756526 0.0 0.0 0.0 -0.0 24.0 -1.741895 0.0 0.0 0.0 -0.0 20.0 3.183529 6.881127 0.039778 2.666111 -0.174279 -4.011852 12.706567 -0.079231 0.038093 -1.617489 -14.072148 -64.476013 26.474384 -0.147718 -0.054427 -73.50071 -19.839617 -28.456133 25.978539 -0.144669 -0.010539 -25.30724 9.598438 4.960358 2.489053 0.190105 3.120527 -21.860001 -0.0 -30.0 3.682737 0.0 0.0 10.0 -0.0 0.0 2.558316 0.0 0.0 10.0 -0.0 0.0 3.223684 0.508421 1.978421 0.0 -0.0 0.0 5.216842 -0.091368 0.999158 -2.55 -0.0 -20.0 3.619368 0.0 0.0 0.0 -0.0 -24.0 2.052105 0.0 0.0 0.0 -0.0 -20.0 3.382106 0.517263 0.756737 0.0 -0.0 0.0 5.174105 -0.084 0.313895 0.0 -0.0 -20.0 3.949473 0.0 0.0 0.0 -0.0 -24.0 2.475789 0.0 0.0 0.0 -0.0 -20.0 3.365158 0.537895 -0.128947 0.0 -0.0 0.0 4.634737 -0.022105 -0.478947 3.0 -0.0 -20.0 3.442379 0.0 0.0 0.0 -0.0 -24.0 2.388105 0.0 0.0 0.0 -0.0 -20.0 3.161053 0.469368 -1.201789 0.0 -0.0 0.0 4.141052 -0.022105 -1.090526 8.83 -0.0 -20.0 2.756526 0.0 0.0 0.0 -0.0 -24.0 1.741895 0.0 0.0 0.0 -0.0 -20.0
-22.175194 94.394264 20.541498 -89.329521 -1.0061 -2.697769 -9.379227 -1.611423 0.02099 2.247557 1.955897 5.232588 -0.22784 -41.868187 0.016458 -10.061042 0.859362 2.025808 1.2107 -42.182125 1.634359 -41.498978 -4.476526 -1.532402 9.174016 -1.588939 0.148995 4.241519 -0.183562 7.721923 -0.174635 -41.866169 -0.055203 -32.541553 -0.830712 1.607384 -2.697759 -41.286549 -1.564849 22.826088 3.234217 -6.899312 0.001825 14.307673 0.035542 -12.2946 2.924439 2.205932 0.014032 9.718416 0.002962 -3.081264 0.892858 0.598112 0.009184 10.120386 0.003769 -5.02797 1.703385 0.966622 0.018719 9.718615 -0.012575 -0.241703 1.06903 0.108015 -0.001679 10.385468 0.018592 -0.24296 1.084025 0.108337 -0.022588 9.4806 0.022011 -3.924023 21.197432 1.322422 -3.235423 6.937065 -0.134759 29.364544 0.815154 -1.771913 -12.791753 0.008694 -0.196509 -21.636097 -22.043158 71.59938 -26.553846 0.117555 0.010956 102.816879 10.088499 46.93586 -26.009232 0.025562 -0.068666 -2.117165 -8.203956 -8.122144 -2.489053 0.190105 3.120527 21.860001 -0.0 30.0 -3.682737 0.0 0.0 -10.0 -0.0 0.0 -2.558316 0.0 0.0 -10.0 -0.0 0.0 -3.223684 0.508421 1.978421 0.0 -0.0 0.0 -5.216842 -0.091368 0.999158 2.55 -0.0 20.0 -3.619368 0.0 0.0 0.0 -0.0 24.0 -2.052105 0.0 0.0 0.0 -0.0 20.0 -3.382106 0.517263 0.756737 0.0 -0.0 0.0 -5.174105 -0.084 0.313895 0.0 -0.0 20.0 -3.949473 0.0 0.0 0.0 -0.0 24.0 -2.475789 0.0 0.0 0.0 -0.0 20.0 -3.365158 0.537895 -0.128947 0.0 -0.0 0.0 -4.634737 -0.022105 -0.478947 -3.0 -0.0 20.0 -3.442379 0.0 0.0 0.0 -0.0 24.0 -2.388105 0.0 0.0 0.0 -0.0 20.0 -3.161053 0.469368 -1.201789 0.0 -0.0 0.0 -4.141052 -0.022105 -1.090526 -8.83 -0.0 20.0 -2.756526 0.0 0.0 0.0 -0.0 24.0 -1.741895 0.0 0.0 0.0 -0.0 20.0 3.19543 6.87638 0.04698 2.205644 -0.346469 -4.091086 12.696657 -0.083029 0.084268 -1.630877 -13.94812 -64.53495 26.471392 -0.164003 -0.03441 -73.526863 -19.929426 -28.482134 25.977749 -0.161789 -0.005424 -25.185055 9.539656 4.962677 2.489053 0.190105 3.120527 -21.860001 -0.0 -30.0 3.682737 0.0 0.0 10.0 -0.0 0.0 2.558316 0.0 0.0 10.0 -0.0 0.0 3.223684 0.508421 1.978421 0.0 -0.0 0.0 5.216842 -0.091368 0.999158 -2.55 -0.0 -20.0 3.619368 0.0 0.0 0.0 -0.0 -24.0 2.052105 0.0 0.0 0.0 -0.0 -20.0 3.382106 0.517263 0.756737 0.0 -0.0 0.0 5.174105 -0.084 0.313895 0.0 -0.0 -20.0 3.949473 0.0 0.0 0.0 -0.0 -24.0 2.475789 0.0 0.0 0.0 -0.0 -20.0 3.365158 0.537895 -0.128947 0.0 -0.0 0.0 4.634737 -0.022105 -0.478947 3.0 -0.0 -20.0 3.442379 0.0 0.0 0.0 -0.0 -24.0 2.388105 0.0 0.0 0.0 -0.0 -20.0 3.161053 0.469368 -1.201789 0.0 -0.0 0.0 4.141052 -0.022105 -1.090526 8.83 -0.0 -20.0 2.756526 0.0 0.0 0.0 -0.0 -24.0 1.741895 0.0 0.0 0.0 -0.0 -20.0
-22.177431 94.391724 20.470148 -89.048225 -0.997018 -2.607271 -9.382713 -1.60341 0.011601 2.101154 2.02022 5.189908 -0.24152 -41.868416 0.028125 -10.095238 0.809384 2.08664 1.186739 -42.179306 1.647319 -41.601707 -4.556935 -1.582788 9.165181 -1.598843 0.1672 4.168263 -0.180187 7.702152 -0.18093 -41.866165 -0.06439 -32.596878 -0.947772 1.669831 -2.703169 -41.276112 -1.570806 22.66205 3.392883 -7.067279 0.016328 14.307679 0.037595 -12.335929 2.938172 2.167757 0.015358 9.718482 0.003443 -3.09176 0.896499 0.589013 0.007952 10.120355 0.00366 -5.04511 1.708913 0.951429 0.015396 9.718632 -0.01263 -0.234375 1.07681 0.111001 -0.005714 10.385047 0.021101 -0.235513 1.091732 0.111354 -0.026205 9.481724 0.018364 -3.756821 21.30051 1.405803 -3.237499 6.93608 -0.136602 29.41856 0.803859 -1.783484 -12.795478 0.008055 -0.204568 -21.56736 -22.053322 71.579613 -26.559761 0.13259 0.014553 102.974342 10.279932 46.908169 -26.007843 0.040869 -0.076871 -2.438317 -7.748688 -8.022797 -2.489053 0.190105 3.120527 21.860001 -0.0 30.0 -3.682737 0.0 0.0 -10.0 -0.0 0.0 -2.558316 0.0 0.0 -10.0 -0.0 0.0 -3.223684 0.508421 1.978421 0.0 -0.0 0.0 -5.216842 -0.091368 0.999158 2.55 -0.0 20.0 -3.619368 0.0 0.0 0.0 -0.0 24.0 -2.052105 0.0 0.0 0.0 -0.0 20.0 -3.382106 0.517263 0.756737 0.0 -0.0 0.0 -5.174105 -0.084 0.313895 0.0 -0.0 20.0 -3.949473 0.0 0.0 0.0 -0.0 24.0 -2.475789 0.0 0.0 0.0 -0.0 20.0 -3.365158 0.537895 -0.128947 0.0 -0.0 0.0 -4.634737 -0.022105 -0.478947 -3.0 -0.0 20.0 -3.442379 0.0 0.0 0.0 -0.0 24.0 -2.388105 0.0 0.0 0.0 -0.0 20.0 -3.161053 0.469368 -1.201789 0.0 -0.0 0.0 -4.141052 -0.022105 -1.090526 -8.83 -0.0 20.0 -2.756526 0.0 0.0 0.0 -0.0 24.0 -1.741895 0.0 0.0 0.0 -0.0 20.0 3.194359 6.877302 0.051365 2.235182 -0.345518 -4.053086 12.690605 -0.082609 0.095095 -1.418857 -13.951268 -64.601372 26.457872 -0.180557 -0.032073 -73.430397 -19.962566 -28.610865 25.975256 -0.187784 0.009322 -25.071295 9.502527 4.94242 2.489053 0.190105 3.120527 -21.860001 -0.0 -30.0 3.682737 0.0 0.0 10.0 -0.0 0.0 2.558316 0.0 0.0 10.0 -0.0 0.0 3.223684 0.508421 1.978421 0.0 -0.0 0.0 5.216842 -0.091368 0.999158 -2.55 -0.0 -20.0 3.619368 0.0 0.0 0.0 -0.0 -24.0 2.052105 0.0 0.0 0.0 -0.0 -20.0 3.382106 0.517263 0.756737 0.0 -0.0 0.0 5.174105 -0.084 0.313895 0.0 -0.0 -20.0 3.949473 0.0 0.0 0.0 -0.0 -24.0 2.475789 0.0 0.0 0.0 -0.0 -20.0 3.365158 0.537895 -0.128947 0.0 -0.0 0.0 4.634737 -0.022105 -0.478947 3.0 -0.0 -20.0 3.442379 0.0 0.0 0.0 -0.0 -24.0 2.388105 0.0 0.0 0.0 -0.0 -20.0 3.161053 0.469368 -1.201789 0.0 -0.0 0.0 4.141052 -0.022105 -1.090526 8.83 -0.0 -20.0 2.756526 0.0 0.0 0.0 -0.0 -24.0 1.741895 0.0 0.0 0.0 -0.0 -20.0
